<svg width="20" height="20" viewBox="0 0 20 20" fill="none" xmlns="http://www.w3.org/2000/svg">
<rect width="20" height="20" rx="10" fill="#151619"/>
<path d="M14.2073 7.94256L9.56021 13.213C9.48522 13.2975 9.39427 13.3663 9.2926 13.4156C9.19093 13.4648 9.08053 13.4935 8.96775 13.5H8.9122C8.70171 13.5013 8.49825 13.4243 8.34134 13.284L5.85423 11.0777C5.68319 10.9259 5.57946 10.7123 5.56586 10.484C5.55226 10.2557 5.62991 10.0314 5.78172 9.86035C5.93353 9.68931 6.14707 9.58557 6.37536 9.57198C6.60365 9.55838 6.828 9.63602 6.99904 9.78783L8.85049 11.4202L12.9268 6.79158C13.0782 6.62012 13.2915 6.51584 13.5198 6.50166C13.7481 6.48748 13.9726 6.56457 14.1441 6.71598C14.3155 6.86738 14.4198 7.08069 14.434 7.30898C14.4482 7.53727 14.3711 7.76185 14.2197 7.9333L14.2073 7.94256Z" fill="#F53B00"/>
</svg>
