<svg width="90" height="20" viewBox="0 0 90 20" fill="none" xmlns="http://www.w3.org/2000/svg">
<path d="M87.5565 19.9999C86.8306 19.9999 86.2338 19.7856 85.7663 19.357C85.3146 18.9121 85.0889 18.3682 85.0889 17.7254C85.0889 17.0662 85.3146 16.5141 85.7663 16.0691C86.2338 15.6241 86.8306 15.4016 87.5565 15.4016C88.2661 15.4016 88.8467 15.6241 89.2984 16.0691C89.7662 16.5141 90 17.0662 90 17.7254C90 18.3682 89.7662 18.9121 89.2984 19.357C88.8467 19.7856 88.2661 19.9999 87.5565 19.9999Z" fill="#EAEBEB"/>
<path d="M68.3781 12.8801C68.3781 11.4628 68.6362 10.2185 69.1523 9.14713C69.6847 8.0759 70.4024 7.25184 71.3055 6.67496C72.2088 6.09808 73.2168 5.80969 74.3297 5.80969C75.2813 5.80969 76.112 6.00751 76.8217 6.40306C77.5473 6.7986 78.1038 7.31778 78.4909 7.9605V6.00751H82.6278V19.8023H78.4909V17.8492C78.0877 18.492 77.5232 19.0112 76.7975 19.4067C76.0876 19.8023 75.2571 20 74.3055 20C73.2088 20 72.2088 19.7116 71.3055 19.1347C70.4024 18.5415 69.6847 17.7092 69.1523 16.6378C68.6362 15.5501 68.3781 14.2975 68.3781 12.8801ZM78.4909 12.9048C78.4909 11.8501 78.2006 11.0178 77.6199 10.4079C77.0554 9.7982 76.3619 9.49322 75.5394 9.49322C74.7168 9.49322 74.0152 9.7982 73.4345 10.4079C72.87 11.0013 72.5877 11.8254 72.5877 12.8801C72.5877 13.935 72.87 14.7755 73.4345 15.4017C74.0152 16.0116 74.7168 16.3165 75.5394 16.3165C76.3619 16.3165 77.0554 16.0116 77.6199 15.4017C78.2006 14.792 78.4909 13.9597 78.4909 12.9048Z" fill="#EAEBEB"/>
<path d="M66.2028 1.50776V19.8019H62.0657V1.50776H66.2028Z" fill="#EAEBEB"/>
<path d="M57.0113 4.57354C56.2853 4.57354 55.6886 4.35929 55.2211 3.93078C54.7693 3.48578 54.5436 2.94189 54.5436 2.29914C54.5436 1.63988 54.7693 1.096 55.2211 0.667489C55.6886 0.2225 56.2853 0 57.0113 0C57.7208 0 58.3015 0.2225 58.7532 0.667489C59.221 1.096 59.4547 1.63988 59.4547 2.29914C59.4547 2.94189 59.221 3.48578 58.7532 3.93078C58.3015 4.35929 57.7208 4.57354 57.0113 4.57354ZM59.0676 6.00739V19.8022H54.9307V6.00739H59.0676Z" fill="#EAEBEB"/>
<path d="M46.8544 5.85899C48.435 5.85899 49.6931 6.38631 50.6286 7.44116C51.58 8.47943 52.0558 9.91334 52.0558 11.7428V19.8021H47.9431V12.3113C47.9431 11.3885 47.7093 10.6715 47.2415 10.1606C46.7738 9.64967 46.1448 9.39415 45.3543 9.39415C44.564 9.39415 43.9351 9.64967 43.4674 10.1606C42.9995 10.6715 42.7658 11.3885 42.7658 12.3113V19.8021H38.6287V6.00726H42.7658V7.83671C43.185 7.22696 43.7496 6.74899 44.4592 6.4029C45.1691 6.04023 45.9673 5.85899 46.8544 5.85899Z" fill="#EAEBEB"/>
<path d="M21.3861 12.8801C21.3861 11.4628 21.6441 10.2185 22.1603 9.14713C22.6924 8.0759 23.4103 7.25184 24.3135 6.67496C25.2166 6.09808 26.2246 5.80969 27.3376 5.80969C28.2893 5.80969 29.1197 6.00751 29.8294 6.40306C30.5553 6.7986 31.1118 7.31778 31.4989 7.9605V6.00751H35.6358V19.8023H31.4989V17.8492C31.0955 18.492 30.5311 19.0112 29.8053 19.4067C29.0956 19.8023 28.2649 20 27.3135 20C26.2165 20 25.2166 19.7116 24.3135 19.1347C23.4103 18.5415 22.6924 17.7092 22.1603 16.6378C21.6441 15.5501 21.3861 14.2975 21.3861 12.8801ZM31.4989 12.9048C31.4989 11.8501 31.2086 11.0178 30.6279 10.4079C30.0634 9.7982 29.3699 9.49322 28.5472 9.49322C27.7246 9.49322 27.0232 9.7982 26.4425 10.4079C25.8779 11.0013 25.5956 11.8254 25.5956 12.8801C25.5956 13.935 25.8779 14.7755 26.4425 15.4017C27.0232 16.0116 27.7246 16.3165 28.5472 16.3165C29.3699 16.3165 30.0634 16.0116 30.6279 15.4017C31.2086 14.792 31.4989 13.9597 31.4989 12.9048Z" fill="#EAEBEB"/>
<path d="M19.2336 2.44703V19.8017H15.0965V9.39387L11.2982 19.8017H7.95951L4.13702 9.36914V19.8017H0V2.44703H4.88701L9.65305 14.4619L14.3708 2.44703H19.2336Z" fill="#EAEBEB"/>
</svg>
